<svg width="232" height="36" viewBox="0 0 232 36" fill="none" xmlns="http://www.w3.org/2000/svg">
<path d="M43.82 28V14.112H46.984L47.264 16.464C47.6933 15.6427 48.3093 14.9893 49.112 14.504C49.9333 14.0187 50.8947 13.776 51.996 13.776C53.7133 13.776 55.048 14.3173 56 15.4C56.952 16.4827 57.428 18.0693 57.428 20.16V28H53.844V20.496C53.844 19.3013 53.6013 18.3867 53.116 17.752C52.6307 17.1173 51.8747 16.8 50.848 16.8C49.84 16.8 49.0093 17.1547 48.356 17.864C47.7213 18.5733 47.404 19.5627 47.404 20.832V28H43.82ZM66.0632 28.336C64.3272 28.336 62.9832 27.7947 62.0312 26.712C61.0978 25.6293 60.6312 24.0427 60.6312 21.952V14.112H64.1872V21.616C64.1872 22.8107 64.4298 23.7253 64.9152 24.36C65.4005 24.9947 66.1658 25.312 67.2112 25.312C68.2005 25.312 69.0125 24.9573 69.6472 24.248C70.3005 23.5387 70.6272 22.5493 70.6272 21.28V14.112H74.2112V28H71.0472L70.7672 25.648C70.3378 26.4693 69.7125 27.1227 68.8912 27.608C68.0885 28.0933 67.1458 28.336 66.0632 28.336ZM76.5743 28L81.6143 21.056L76.5743 14.112H80.4103L83.9383 19.04L87.4383 14.112H91.3023L86.2343 21.056L91.3023 28H87.4383L83.9383 23.072L80.4103 28H76.5743ZM99.7736 28C98.3176 28 97.151 27.6453 96.2736 26.936C95.3963 26.2267 94.9576 24.9667 94.9576 23.156V17.108H92.5776V14.112H94.9576L95.3776 10.388H98.5416V14.112H102.294V17.108H98.5416V23.184C98.5416 23.856 98.6816 24.3227 98.9616 24.584C99.2603 24.8267 99.7643 24.948 100.474 24.948H102.21V28H99.7736ZM104.195 31.108L111.195 6.244H114.695L107.667 31.108H104.195Z" fill="#003C3C"/>
<path d="M122.896 28.336C121.664 28.336 120.581 28.14 119.648 27.748C118.715 27.3373 117.968 26.7773 117.408 26.068C116.848 25.3587 116.512 24.5373 116.4 23.604H120.012C120.124 24.1453 120.423 24.612 120.908 25.004C121.412 25.3773 122.056 25.564 122.84 25.564C123.624 25.564 124.193 25.4053 124.548 25.088C124.921 24.7707 125.108 24.4067 125.108 23.996C125.108 23.3987 124.847 22.9973 124.324 22.792C123.801 22.568 123.073 22.3533 122.14 22.148C121.543 22.0173 120.936 21.8587 120.32 21.672C119.704 21.4853 119.135 21.252 118.612 20.972C118.108 20.6733 117.697 20.3 117.38 19.852C117.063 19.3853 116.904 18.816 116.904 18.144C116.904 16.912 117.389 15.876 118.36 15.036C119.349 14.196 120.731 13.776 122.504 13.776C124.147 13.776 125.453 14.1587 126.424 14.924C127.413 15.6893 128.001 16.744 128.188 18.088H124.8C124.595 17.0613 123.82 16.548 122.476 16.548C121.804 16.548 121.281 16.6787 120.908 16.94C120.553 17.2013 120.376 17.528 120.376 17.92C120.376 18.3307 120.647 18.6573 121.188 18.9C121.729 19.1427 122.448 19.3667 123.344 19.572C124.315 19.796 125.201 20.048 126.004 20.328C126.825 20.5893 127.479 20.9907 127.964 21.532C128.449 22.0547 128.692 22.8107 128.692 23.8C128.711 24.6587 128.487 25.4333 128.02 26.124C127.553 26.8147 126.881 27.356 126.004 27.748C125.127 28.14 124.091 28.336 122.896 28.336ZM138.615 28.336C137.215 28.336 135.974 28.0373 134.891 27.44C133.808 26.8427 132.959 26.0027 132.343 24.92C131.727 23.8373 131.419 22.5867 131.419 21.168C131.419 19.7307 131.718 18.452 132.315 17.332C132.931 16.212 133.771 15.344 134.835 14.728C135.918 14.0933 137.187 13.776 138.643 13.776C140.006 13.776 141.21 14.0747 142.255 14.672C143.3 15.2693 144.112 16.0907 144.691 17.136C145.288 18.1627 145.587 19.3107 145.587 20.58C145.587 20.7853 145.578 21 145.559 21.224C145.559 21.448 145.55 21.6813 145.531 21.924H134.975C135.05 23.0067 135.423 23.856 136.095 24.472C136.786 25.088 137.616 25.396 138.587 25.396C139.315 25.396 139.922 25.2373 140.407 24.92C140.911 24.584 141.284 24.1547 141.527 23.632H145.167C144.906 24.5093 144.467 25.312 143.851 26.04C143.254 26.7493 142.507 27.3093 141.611 27.72C140.734 28.1307 139.735 28.336 138.615 28.336ZM138.643 16.688C137.766 16.688 136.991 16.94 136.319 17.444C135.647 17.9293 135.218 18.676 135.031 19.684H141.947C141.891 18.7693 141.555 18.0413 140.939 17.5C140.323 16.9587 139.558 16.688 138.643 16.688ZM148.601 28V14.112H151.765L152.045 16.464C152.475 15.6427 153.091 14.9893 153.893 14.504C154.715 14.0187 155.676 13.776 156.777 13.776C158.495 13.776 159.829 14.3173 160.781 15.4C161.733 16.4827 162.209 18.0693 162.209 20.16V28H158.625V20.496C158.625 19.3013 158.383 18.3867 157.897 17.752C157.412 17.1173 156.656 16.8 155.629 16.8C154.621 16.8 153.791 17.1547 153.137 17.864C152.503 18.5733 152.185 19.5627 152.185 20.832V28H148.601ZM171.824 28C170.368 28 169.202 27.6453 168.324 26.936C167.447 26.2267 167.008 24.9667 167.008 23.156V17.108H164.628V14.112H167.008L167.428 10.388H170.592V14.112H174.344V17.108H170.592V23.184C170.592 23.856 170.732 24.3227 171.012 24.584C171.311 24.8267 171.815 24.948 172.524 24.948H174.26V28H171.824ZM177.422 28V14.112H180.614L180.95 16.716C181.454 15.82 182.135 15.1107 182.994 14.588C183.871 14.0467 184.898 13.776 186.074 13.776V17.556H185.066C184.282 17.556 183.582 17.6773 182.966 17.92C182.35 18.1627 181.864 18.5827 181.51 19.18C181.174 19.7773 181.006 20.608 181.006 21.672V28H177.422ZM190.259 34.16L193.479 27.076H192.639L187.235 14.112H191.127L195.019 23.884L199.079 14.112H202.887L194.067 34.16H190.259Z" fill="#362D59"/>
<path d="M18.4768 6.21005C18.2346 5.80425 17.8926 5.46854 17.484 5.23551C17.0754 5.00247 16.6141 4.88 16.1448 4.88C15.6755 4.88 15.2141 5.00247 14.8055 5.23551C14.3969 5.46854 14.0549 5.80425 13.8127 6.21005L9.97656 12.8431C12.9072 14.3202 15.4042 16.5455 17.2196 19.298C19.0349 22.0506 20.1055 25.2346 20.3249 28.534H17.6314C17.4124 25.7058 16.4656 22.9844 14.8847 20.639C13.3039 18.2937 11.1437 16.4057 8.61815 15.162L5.06763 21.3595C6.48745 22.0023 7.72438 22.9952 8.66469 24.2468C9.605 25.4984 10.2185 26.9686 10.4488 28.5222H4.26308C4.18972 28.517 4.11881 28.4934 4.05673 28.4536C3.99466 28.4138 3.94338 28.359 3.90752 28.2942C3.87165 28.2294 3.85234 28.1565 3.85131 28.0823C3.85028 28.0081 3.86757 27.9347 3.90162 27.8689L5.61566 24.9262C5.03495 24.437 4.37126 24.0582 3.65676 23.8079L1.96021 26.7507C1.78359 27.0565 1.66893 27.3947 1.62289 27.7457C1.57685 28.0966 1.60035 28.4533 1.69202 28.795C1.78369 29.1367 1.9417 29.4566 2.15689 29.7361C2.37207 30.0156 2.64013 30.2492 2.94549 30.4233C3.34782 30.6521 3.80129 30.7737 4.26308 30.7764H12.7342C12.8915 28.8165 12.5448 26.8489 11.7277 25.064C10.9106 23.2791 9.6507 21.7375 8.07012 20.5885L9.41687 18.2343C11.4116 19.6173 13.0146 21.5016 14.0677 23.7011C15.1207 25.9005 15.5875 28.3392 15.4218 30.7764H22.5987C22.7658 27.0844 21.9702 23.4127 20.2913 20.1284C18.6124 16.844 16.1091 14.062 13.0315 12.0603L15.7542 7.35185C15.8148 7.24923 15.9132 7.17496 16.0278 7.14519C16.1425 7.11543 16.2641 7.13259 16.3663 7.19294C16.6753 7.36362 28.1955 27.6571 28.4112 27.8925C28.4492 27.9613 28.4686 28.039 28.4673 28.1177C28.466 28.1965 28.4441 28.2735 28.4039 28.341C28.3637 28.4085 28.3065 28.464 28.2382 28.5021C28.1699 28.5401 28.0928 28.5592 28.0148 28.5575H25.2397C25.2747 29.307 25.2747 30.0544 25.2397 30.7999H28.0265C28.3803 30.8023 28.7311 30.7337 29.0586 30.5983C29.386 30.4628 29.6836 30.2632 29.9341 30.0108C30.1846 29.7585 30.3831 29.4585 30.518 29.1282C30.6528 28.7979 30.7215 28.4439 30.7199 28.0867C30.7203 27.6148 30.5955 27.1515 30.3585 26.7448L18.4768 6.21005Z" fill="#362D59"/>
</svg>
